<?xml version="1.0" encoding="us-ascii" standalone="no"?><svg xmlns="http://www.w3.org/2000/svg" xmlns:xlink="http://www.w3.org/1999/xlink" contentStyleType="text/css" height="499px" preserveAspectRatio="none" style="width:510px;height:499px;background:#003153;" version="1.1" viewBox="0 0 510 499" width="510px" zoomAndPan="magnify"><defs/><g><rect fill="#003153" height="499" style="stroke:none;stroke-width:1.0;" width="510" x="0" y="0"/><text fill="#D9D3D0" font-family="Verdana" font-size="22" font-weight="bold" lengthAdjust="spacing" textLength="434" x="33.75" y="37.1182">Modelo Entidade - Relacionamento</text><!--class funcionario--><g id="elem_funcionario"><rect codeLine="6" fill="#003153" height="163.1025" id="funcionario" rx="2.5" ry="2.5" style="stroke:#D9D3D0;stroke-width:1.0;" width="220" x="12" y="59.7373"/><ellipse cx="75.75" cy="73.7373" fill="#003153" rx="9" ry="9" style="stroke:#D9D3D0;stroke-width:1.0;"/><path d="M79.8594,79.7373 L72.1406,79.7373 L72.1406,67.3467 L79.8594,67.3467 L79.8594,69.5029 L74.5938,69.5029 L74.5938,72.1748 L79.3594,72.1748 L79.3594,74.3311 L74.5938,74.3311 L74.5938,77.5811 L79.8594,77.5811 L79.8594,79.7373 Z " fill="#D9D3D0"/><text fill="#D9D3D0" font-family="Verdana" font-size="14" lengthAdjust="spacing" textLength="85" x="93.25" y="79.3052">funcionarios</text><line style="stroke:#D9D3D0;stroke-width:1.0;" x1="13" x2="231" y1="87.7373" y2="87.7373"/><ellipse cx="23" cy="101.7446" fill="#003153" rx="3" ry="3" style="stroke:#D9D3D0;stroke-width:1.0;"/><text fill="#D9D3D0" font-family="Verdana" font-size="14" lengthAdjust="spacing" textLength="176" x="30" y="105.8125">id : number &#171;generated&#187;</text><line style="stroke:#D9D3D0;stroke-width:1.0;" x1="13" x2="231" y1="112.752" y2="112.752"/><ellipse cx="23" cy="126.7593" fill="#003153" rx="3" ry="3" style="stroke:#D9D3D0;stroke-width:1.0;"/><text fill="#D9D3D0" font-family="Verdana" font-size="14" lengthAdjust="spacing" textLength="91" x="30" y="130.8271">nome: string</text><ellipse cx="23" cy="143.7739" fill="#003153" rx="3" ry="3" style="stroke:#D9D3D0;stroke-width:1.0;"/><text fill="#D9D3D0" font-family="Verdana" font-size="14" lengthAdjust="spacing" textLength="136" x="30" y="147.8418">data_entrada: date</text><ellipse cx="23" cy="160.7886" fill="#003153" rx="3" ry="3" style="stroke:#D9D3D0;stroke-width:1.0;"/><text fill="#D9D3D0" font-family="Verdana" font-size="14" lengthAdjust="spacing" textLength="118" x="30" y="164.8564">data_saida: date</text><ellipse cx="23" cy="177.8032" fill="#003153" rx="3" ry="3" style="stroke:#D9D3D0;stroke-width:1.0;"/><text fill="#D9D3D0" font-family="Verdana" font-size="14" lengthAdjust="spacing" textLength="107" x="30" y="181.8711">salario: decimal</text><ellipse cx="23" cy="194.8179" fill="#003153" rx="3" ry="3" style="stroke:#D9D3D0;stroke-width:1.0;"/><text fill="#D9D3D0" font-family="Verdana" font-size="14" lengthAdjust="spacing" textLength="171" x="30" y="198.8857">cargo_id : number &#171;FK&#187;</text><text fill="#D9D3D0" font-family="Verdana" font-size="14" lengthAdjust="spacing" textLength="196" x="30" y="215.9004">endereco_id : number &#171;FK&#187;</text></g><!--class endereco--><g id="elem_endereco"><rect codeLine="16" fill="#003153" height="180.1172" id="endereco" rx="2.5" ry="2.5" style="stroke:#D9D3D0;stroke-width:1.0;" width="200" x="13" y="282.7373"/><ellipse cx="73.25" cy="296.7373" fill="#003153" rx="9" ry="9" style="stroke:#D9D3D0;stroke-width:1.0;"/><path d="M77.3594,302.7373 L69.6406,302.7373 L69.6406,290.3467 L77.3594,290.3467 L77.3594,292.5029 L72.0938,292.5029 L72.0938,295.1748 L76.8594,295.1748 L76.8594,297.3311 L72.0938,297.3311 L72.0938,300.5811 L77.3594,300.5811 L77.3594,302.7373 Z " fill="#D9D3D0"/><text fill="#D9D3D0" font-family="Verdana" font-size="14" lengthAdjust="spacing" textLength="72" x="90.75" y="302.3052">enderecos</text><line style="stroke:#D9D3D0;stroke-width:1.0;" x1="14" x2="212" y1="310.7373" y2="310.7373"/><ellipse cx="24" cy="324.7446" fill="#003153" rx="3" ry="3" style="stroke:#D9D3D0;stroke-width:1.0;"/><text fill="#D9D3D0" font-family="Verdana" font-size="14" lengthAdjust="spacing" textLength="176" x="31" y="328.8125">id : number &#171;generated&#187;</text><line style="stroke:#D9D3D0;stroke-width:1.0;" x1="14" x2="212" y1="335.752" y2="335.752"/><ellipse cx="24" cy="349.7593" fill="#003153" rx="3" ry="3" style="stroke:#D9D3D0;stroke-width:1.0;"/><text fill="#D9D3D0" font-family="Verdana" font-size="14" lengthAdjust="spacing" textLength="81" x="31" y="353.8271">bairro: text</text><ellipse cx="24" cy="366.7739" fill="#003153" rx="3" ry="3" style="stroke:#D9D3D0;stroke-width:1.0;"/><text fill="#D9D3D0" font-family="Verdana" font-size="14" lengthAdjust="spacing" textLength="64" x="31" y="370.8418">cep: text</text><ellipse cx="24" cy="383.7886" fill="#003153" rx="3" ry="3" style="stroke:#D9D3D0;stroke-width:1.0;"/><text fill="#D9D3D0" font-family="Verdana" font-size="14" lengthAdjust="spacing" textLength="84" x="31" y="387.8564">cidade: text</text><text fill="#D9D3D0" font-family="Verdana" font-size="14" lengthAdjust="spacing" textLength="134" x="31" y="404.8711">complemento: text</text><text fill="#D9D3D0" font-family="Verdana" font-size="14" lengthAdjust="spacing" textLength="117" x="31" y="421.8857">logradouro: text</text><text fill="#D9D3D0" font-family="Verdana" font-size="14" lengthAdjust="spacing" textLength="94" x="31" y="438.9004">numero: text</text><text fill="#D9D3D0" font-family="Verdana" font-size="14" lengthAdjust="spacing" textLength="64" x="31" y="455.915">uf: enum</text></g><!--class cargo--><g id="elem_cargo"><rect codeLine="28" fill="#003153" height="95.0439" id="cargo" rx="2.5" ry="2.5" style="stroke:#D9D3D0;stroke-width:1.0;" width="255" x="248.5" y="325.2373"/><ellipse cx="348.75" cy="339.2373" fill="#003153" rx="9" ry="9" style="stroke:#D9D3D0;stroke-width:1.0;"/><path d="M352.8594,345.2373 L345.1406,345.2373 L345.1406,332.8467 L352.8594,332.8467 L352.8594,335.0029 L347.5938,335.0029 L347.5938,337.6748 L352.3594,337.6748 L352.3594,339.8311 L347.5938,339.8311 L347.5938,343.0811 L352.8594,343.0811 L352.8594,345.2373 Z " fill="#D9D3D0"/><text fill="#D9D3D0" font-family="Verdana" font-size="14" lengthAdjust="spacing" textLength="47" x="366.25" y="344.8052">cargos</text><line style="stroke:#D9D3D0;stroke-width:1.0;" x1="249.5" x2="502.5" y1="353.2373" y2="353.2373"/><ellipse cx="259.5" cy="367.2446" fill="#003153" rx="3" ry="3" style="stroke:#D9D3D0;stroke-width:1.0;"/><text fill="#D9D3D0" font-family="Verdana" font-size="14" lengthAdjust="spacing" textLength="176" x="266.5" y="371.3125">id : number &#171;generated&#187;</text><line style="stroke:#D9D3D0;stroke-width:1.0;" x1="249.5" x2="502.5" y1="378.252" y2="378.252"/><ellipse cx="259.5" cy="392.2593" fill="#003153" rx="3" ry="3" style="stroke:#D9D3D0;stroke-width:1.0;"/><text fill="#D9D3D0" font-family="Verdana" font-size="14" lengthAdjust="spacing" textLength="91" x="266.5" y="396.3271">nome: string</text><ellipse cx="259.5" cy="409.2739" fill="#003153" rx="3" ry="3" style="stroke:#D9D3D0;stroke-width:1.0;"/><text fill="#D9D3D0" font-family="Verdana" font-size="14" lengthAdjust="spacing" textLength="231" x="266.5" y="413.3418">departamento_id : number &#171;FK&#187;</text></g><!--class departamento--><g id="elem_departamento"><rect codeLine="36" fill="#003153" height="78.0293" id="departamento" rx="2.5" ry="2.5" style="stroke:#D9D3D0;stroke-width:1.0;" width="200" x="276" y="102.2373"/><ellipse cx="318.75" cy="116.2373" fill="#003153" rx="9" ry="9" style="stroke:#D9D3D0;stroke-width:1.0;"/><path d="M322.8594,122.2373 L315.1406,122.2373 L315.1406,109.8467 L322.8594,109.8467 L322.8594,112.0029 L317.5938,112.0029 L317.5938,114.6748 L322.3594,114.6748 L322.3594,116.8311 L317.5938,116.8311 L317.5938,120.0811 L322.8594,120.0811 L322.8594,122.2373 Z " fill="#D9D3D0"/><text fill="#D9D3D0" font-family="Verdana" font-size="14" lengthAdjust="spacing" textLength="107" x="336.25" y="121.8052">departamentos</text><line style="stroke:#D9D3D0;stroke-width:1.0;" x1="277" x2="475" y1="130.2373" y2="130.2373"/><ellipse cx="287" cy="144.2446" fill="#003153" rx="3" ry="3" style="stroke:#D9D3D0;stroke-width:1.0;"/><text fill="#D9D3D0" font-family="Verdana" font-size="14" lengthAdjust="spacing" textLength="176" x="294" y="148.3125">id : number &#171;generated&#187;</text><line style="stroke:#D9D3D0;stroke-width:1.0;" x1="277" x2="475" y1="155.252" y2="155.252"/><ellipse cx="287" cy="169.2593" fill="#003153" rx="3" ry="3" style="stroke:#D9D3D0;stroke-width:1.0;"/><text fill="#D9D3D0" font-family="Verdana" font-size="14" lengthAdjust="spacing" textLength="79" x="294" y="173.3271">nome: text</text></g><!--link funcionario to endereco--><g id="link_funcionario_endereco"><path codeLine="42" d="M118.1343,240.8135 C117.3743,260.1835 117.845,248.0187 117.075,267.7487 " fill="none" id="funcionario-endereco" style="stroke:#D9D3D0;stroke-width:1.0;stroke-dasharray:7.0,7.0;"/><line style="stroke:#D9D3D0;stroke-width:1.0;" x1="118.5264" x2="112.8446" y1="230.8212" y2="222.5921"/><line style="stroke:#D9D3D0;stroke-width:1.0;" x1="118.5264" x2="124.8354" y1="230.8212" y2="223.0625"/><line style="stroke:#D9D3D0;stroke-width:1.0;" x1="118.5264" x2="118.84" y1="230.8212" y2="222.8273"/><ellipse cx="118.2911" cy="236.8165" fill="none" rx="4" ry="4" style="stroke:#D9D3D0;stroke-width:1.0;"/><line style="stroke:#D9D3D0;stroke-width:1.0;" x1="116.919" x2="116.49" y1="271.7457" y2="282.7373"/><ellipse cx="116.919" cy="271.7457" fill="none" rx="4" ry="4" style="stroke:#D9D3D0;stroke-width:1.0;"/><line style="stroke:#D9D3D0;stroke-width:1.0;" x1="120.6429" x2="112.649" y1="278.8963" y2="278.5844"/></g><!--link funcionario to cargo--><g id="link_funcionario_cargo"><path codeLine="43" d="M224.5451,234.8955 C262.4251,269.1255 285.9546,290.3735 318.4546,319.7435 " fill="none" id="funcionario-cargo" style="stroke:#D9D3D0;stroke-width:1.0;stroke-dasharray:7.0,7.0;"/><line style="stroke:#D9D3D0;stroke-width:1.0;" x1="217.1256" x2="207.1673" y1="228.191" y2="227.279"/><line style="stroke:#D9D3D0;stroke-width:1.0;" x1="217.1256" x2="215.2127" y1="228.191" y2="218.3756"/><line style="stroke:#D9D3D0;stroke-width:1.0;" x1="217.1256" x2="211.19" y1="228.191" y2="222.8273"/><ellipse cx="221.5773" cy="232.2137" fill="none" rx="4" ry="4" style="stroke:#D9D3D0;stroke-width:1.0;"/><line style="stroke:#D9D3D0;stroke-width:1.0;" x1="324.1042" x2="318.7404" y1="319.4577" y2="325.3931"/><line style="stroke:#D9D3D0;stroke-width:1.0;" x1="321.8784" x2="316.5146" y1="317.4462" y2="323.3817"/><line style="stroke:#D9D3D0;stroke-width:1.0;" x1="318.4546" x2="324.39" y1="319.7435" y2="325.1073"/></g><!--link departamento to cargo--><g id="link_departamento_cargo"><path codeLine="44" d="M376,188.3873 C376,228.1573 376,264.5173 376,307.1573 " fill="none" id="departamento-cargo" style="stroke:#D9D3D0;stroke-width:1.0;stroke-dasharray:7.0,7.0;"/><line style="stroke:#D9D3D0;stroke-width:1.0;" x1="372" x2="380" y1="184.3873" y2="184.3873"/><line style="stroke:#D9D3D0;stroke-width:1.0;" x1="372" x2="380" y1="187.3873" y2="187.3873"/><line style="stroke:#D9D3D0;stroke-width:1.0;" x1="376" x2="376" y1="188.3873" y2="180.3873"/><line style="stroke:#D9D3D0;stroke-width:1.0;" x1="376" x2="382" y1="317.1573" y2="325.1573"/><line style="stroke:#D9D3D0;stroke-width:1.0;" x1="376" x2="370" y1="317.1573" y2="325.1573"/><line style="stroke:#D9D3D0;stroke-width:1.0;" x1="376" x2="376" y1="317.1573" y2="325.1573"/><ellipse cx="376" cy="311.1573" fill="none" rx="4" ry="4" style="stroke:#D9D3D0;stroke-width:1.0;"/></g><text fill="#D9D3D0" font-family="Verdana" font-size="10" lengthAdjust="spacing" textLength="200" x="150.75" y="483.9082">https://github.com/acnaweb/mvc-rh</text><!--SRC=[fLAxRiCm3Dpr5Mp60evt8_3MBaMN_a10MumjG0z3flj0d7ylAoMfZRP3Mq_cyQIx8tN3FJc2nauqHEDPAJPi2Hw39XlWphFHg0aAU2ABhGaU7NaEwX02KuIUUHYhikmCzrEpROChiVNuGatfdjiYzae9tV0RR0wJJ-UZ2UC6S8G504S5yjqQ3HNuoJLozMxNaQU8JBgkKxieCii7HnMCB8QxZ6Xat8jGH8qLI4KBV4IpHaUq7w82KMiSseos6BkmNpkuVwXhI6tocYArtn90dQufBxmSyLBzBb-39aQnn_JAPsyqhCgqb0KYSnyifSqiK1iw6KYOLdU9Egs0wL29pyb9Y6kAD8iS8Vt-UpyqOEJyT7wQuAVwafrDB96_U4bXHMBvv4vXkmtpTKLVUlESiwkL-3pBgUEvymu0]--></g></svg>